<svg xmlns="http://www.w3.org/2000/svg" width="90" height="50" viewBox="0 0 90 50" fill="none">
<path fill-rule="evenodd" clip-rule="evenodd" d="M38.5051 28.0866H44.4587C52.2149 28.0866 58.5013 21.7993 58.5013 14.0431C58.5013 6.28639 52.2149 0 44.4587 0H38.5051V7.01341H45.31C49.1685 7.01341 52.2957 10.1397 52.2957 13.9983C52.2957 17.8556 49.1685 20.9827 45.31 20.9827H38.5051V28.0866ZM24.8409 42.9449C24.8409 46.2912 22.8042 49.3542 18.5022 49.3542C14.1998 49.3542 12.1636 46.2205 12.1636 42.9629C12.1636 39.1921 14.8013 36.4645 18.5378 36.4645C22.7696 36.4825 24.8409 39.5991 24.8409 42.9449ZM18.5027 47.5305C21.5838 47.5305 22.8758 45.353 22.8758 42.9805C22.8758 40.6971 21.5658 38.3242 18.5382 38.2706C15.6697 38.2706 14.1291 40.2717 14.1291 42.9805C14.1647 45.1756 15.4392 47.5305 18.5027 47.5305ZM4.69229 36.695C8.92405 36.695 10.854 39.7225 10.9062 42.7856C10.9774 45.9193 9.03029 49.0886 4.69229 49.0886H0V36.695H4.69229ZM1.96551 47.1762H4.69229C7.7198 47.1762 8.99473 44.9456 8.94161 42.7684C8.88805 40.6782 7.614 38.5889 4.69229 38.5889H1.96551V47.1762ZM37.6244 39.5991L37.6231 39.601V39.5991H37.6244ZM37.6231 39.601L33.4106 45.4597H32.9861L28.8246 39.5991V49.1066H26.8411V36.7125H29.1424L33.2328 42.52L37.3048 36.7125H39.6066V49.1062H37.6231V39.601ZM42.3689 36.695V49.0886H44.3349V36.695H42.3689ZM55.6481 45.5123V36.695H57.6316V49.0886H56.1262L49.097 40.3428V49.0891H47.0959V36.695H48.6184L55.6481 45.5123ZM60.3935 36.695V49.0886H62.359V36.695H60.3935ZM70.6974 49.3542C75.0003 49.3542 77.0356 46.2912 77.0356 42.9449C77.0356 39.5991 74.9643 36.4825 70.733 36.4645C66.9969 36.4645 64.3583 39.1921 64.3583 42.9629C64.3583 46.2205 66.3945 49.3542 70.6974 49.3542ZM75.0705 42.9805C75.0705 45.353 73.7781 47.5305 70.6974 47.5305C67.6348 47.5305 66.3599 45.1756 66.3247 42.9805C66.3247 40.2717 67.8648 38.2706 70.7325 38.2706C73.7605 38.3242 75.0705 40.6971 75.0705 42.9805ZM87.5889 36.695V45.5123L80.5592 36.695H79.0367V49.0886H81.0378V40.3424L88.0665 49.0886H89.5715V36.695H87.5889ZM46.2315 17.9039H38.5209V10.1814H46.2315V17.9039ZM39.6514 16.7742H45.1023V11.3119H39.6514V16.7742Z" fill="white"/>
</svg>